<?xml version="1.0" standalone="no"?>
<!DOCTYPE svg PUBLIC "-//W3C//DTD SVG 20010904//EN"
 "http://www.w3.org/TR/2001/REC-SVG-20010904/DTD/svg10.dtd">
<svg version="1.0" xmlns="http://www.w3.org/2000/svg"
 width="200.000000pt" height="199.000000pt" viewBox="0 0 200.000000 199.000000"
 preserveAspectRatio="xMidYMid meet">

<g transform="translate(0.000000,199.000000) scale(0.100000,-0.100000)"
fill="#000000" stroke="none">
<path d="M1051 1965 c-57 -74 -91 -493 -91 -1147 l0 -387 -28 8 c-16 5 -44 16
-63 26 -58 30 -419 277 -475 325 -139 120 -258 312 -309 503 -19 72 -34 83
-60 43 -42 -64 -23 -190 52 -341 88 -175 209 -307 398 -434 211 -142 337 -265
431 -419 50 -81 95 -116 139 -106 56 12 225 132 225 159 0 21 -23 24 -45 5
-53 -48 -171 -120 -195 -120 -30 0 -45 14 -83 80 -45 78 -156 208 -240 281
-45 39 -141 111 -213 160 -205 139 -325 279 -409 478 -30 72 -56 181 -43 181
3 0 16 -28 28 -62 57 -157 144 -291 263 -405 53 -50 158 -129 293 -219 223
-149 311 -193 351 -175 l23 11 0 402 c0 428 10 690 36 905 23 203 49 267 67
173 6 -28 2 -114 -12 -254 -44 -443 -46 -784 -6 -1046 30 -203 46 -238 100
-224 36 9 227 184 518 475 130 130 237 235 237 232 0 -24 -65 -104 -274 -337
-184 -205 -337 -396 -334 -415 7 -35 32 -14 121 97 52 65 159 190 237 278 172
192 251 288 274 331 18 36 21 85 6 114 -16 28 -35 23 -58 -14 -35 -60 -252
-281 -572 -581 -118 -112 -163 -146 -175 -134 -11 10 -43 226 -56 364 -15 176
-6 517 21 794 22 232 24 299 10 352 -19 69 -55 86 -89 43z"/>
<path d="M1185 1800 c-25 -41 -29 -919 -6 -1128 11 -93 21 -112 61 -112 38 0
90 38 237 173 234 217 420 437 411 486 -2 8 -47 34 -101 57 -116 50 -225 113
-277 160 -21 19 -79 92 -129 162 -139 197 -176 234 -196 202z m167 -233 c129
-177 199 -233 405 -323 41 -17 77 -34 80 -37 31 -32 -535 -607 -598 -607 -13
0 -18 31 -30 215 -12 181 -6 875 8 911 7 20 -8 37 135 -159z"/>
<path d="M833 1723 c-50 -43 -142 -124 -206 -181 -70 -62 -136 -112 -170 -127
-69 -32 -173 -55 -252 -55 -83 0 -92 -7 -76 -62 41 -137 152 -297 318 -459
113 -111 202 -175 325 -234 77 -37 113 -43 142 -22 16 12 17 25 5 217 -19 338
-1 822 37 974 11 47 -27 30 -123 -51z m58 -89 c-25 -132 -34 -441 -22 -717 7
-148 15 -275 18 -283 15 -40 -108 7 -240 92 -87 56 -258 221 -337 326 -57 75
-140 226 -140 254 0 10 13 14 45 14 70 0 193 28 261 60 38 17 97 60 155 112
289 259 280 254 260 142z"/>
<path d="M1278 268 c-17 -26 -13 -48 7 -48 16 0 45 38 45 57 0 21 -37 15 -52
-9z"/>
</g>
</svg>
